<?xml version="1.0" encoding="UTF-8"?>
<svg version="1.1" xmlns="http://www.w3.org/2000/svg" width="516" height="152">
<path d="M0 0 C170.28 0 340.56 0 516 0 C516 50.16 516 100.32 516 152 C345.72 152 175.44 152 0 152 C0 101.84 0 51.68 0 0 Z " fill="#3F7D47" transform="translate(0,0)"/>
<path d="M0 0 C17.16 0 34.32 0 52 0 C50.77929989 5.49315051 49.59072033 10.6694645 47.9375 16 C47.59589844 17.11375 47.25429687 18.2275 46.90234375 19.375 C46 22 46 22 45 23 C42.1883662 23.08861992 39.40141745 23.11522355 36.58984375 23.09765625 C35.74780899 23.0962413 34.90577423 23.09482635 34.03822327 23.09336853 C31.33794665 23.08775263 28.63775172 23.07519748 25.9375 23.0625 C24.11132932 23.05748705 22.28515734 23.05292379 20.45898438 23.04882812 C15.97262458 23.03777804 11.48632616 23.02050279 7 23 C4.87610985 18.84088167 3.17879625 14.8455632 1.8125 10.375 C1.46832031 9.26898438 1.12414062 8.16296875 0.76953125 7.0234375 C0 4 0 4 0 0 Z " fill="#E9F3EA" transform="translate(64,75)"/>
<path d="M0 0 C0.53184062 7.0764349 0.20149815 13.0690973 -4 19 C-12.28046745 27 -12.28046745 27 -16 27 C-16.66 29.97 -17.32 32.94 -18 36 C-18.9590625 34.948125 -18.9590625 34.948125 -19.9375 33.875 C-23.49799687 30.28363177 -27.74812946 27.69563035 -32 25 C-31.44570312 25.40992187 -30.89140625 25.81984375 -30.3203125 26.2421875 C-29.59585938 26.78101562 -28.87140625 27.31984375 -28.125 27.875 C-27.04605469 28.67550781 -27.04605469 28.67550781 -25.9453125 29.4921875 C-24 31 -24 31 -22 33 C-22 33.99 -22 34.98 -22 36 C-27.12590243 36.45586089 -30.82360631 36.67533712 -35.375 34.0625 C-38.67976509 30.77656548 -40.78576235 26.47174418 -42 22 C-41.505 20.515 -41.505 20.515 -41 19 C-38.93816367 18.91849256 -36.87538651 18.8605806 -34.8125 18.8125 C-33.66394531 18.77769531 -32.51539062 18.74289063 -31.33203125 18.70703125 C-27.71677 19.02490299 -25.93982312 19.95233527 -23 22 C-22.67 22 -22.34 22 -22 22 C-22.06960937 21.3709375 -22.13921875 20.741875 -22.2109375 20.09375 C-22.60548331 13.85616861 -21.73927488 10.39468904 -17.65234375 5.625 C-12.24622743 0.3083466 -7.3082186 -0.14054267 0 0 Z " fill="#E5F0E6" transform="translate(112,38)"/>
<path d="M0 0 C1.98 0 3.96 0 6 0 C6 11.55 6 23.1 6 35 C4.02 35 2.04 35 0 35 C-0.33 34.34 -0.66 33.68 -1 33 C-1.515625 33.495 -2.03125 33.99 -2.5625 34.5 C-5.97904264 36.60248778 -8.04648052 36.54531303 -12 36 C-16.16030385 33.25262953 -18.90513887 30.92687509 -20 26 C-20.61084114 21.62727133 -21.02504014 17.74508367 -18.7265625 13.83203125 C-16.66555271 11.39400747 -14.87033619 9.43516809 -12 8 C-6.97381517 7.6206653 -4.10111964 8.01736753 0 11 C0 7.37 0 3.74 0 0 Z " fill="#E4EFE5" transform="translate(250,64)"/>
<path d="M0 0 C7 0 7 0 8.93359375 1.765625 C9.42988281 2.58546875 9.92617187 3.4053125 10.4375 4.25 C11.0046875 5.14976563 11.571875 6.04953125 12.15625 6.9765625 C12.7646875 7.97429687 13.373125 8.97203125 14 10 C15.46061485 12.22113283 16.95078693 14.42110492 18.4375 16.625 C19.613125 18.39875 20.78875 20.1725 22 22 C22.33 14.74 22.66 7.48 23 0 C25.31 0 27.62 0 30 0 C30 11.88 30 23.76 30 36 C23 36 23 36 20.82836914 33.98046875 C20.23660889 33.05878906 19.64484863 32.13710937 19.03515625 31.1875 C18.38095703 30.19492188 17.72675781 29.20234375 17.05273438 28.1796875 C16.39595703 27.13039063 15.73917969 26.08109375 15.0625 25 C14.37865234 23.95070313 13.69480469 22.90140625 12.99023438 21.8203125 C11.30497813 19.22761058 9.6495778 16.61554678 8 14 C7.67 21.26 7.34 28.52 7 36 C4.69 36 2.38 36 0 36 C0 24.12 0 12.24 0 0 Z " fill="#E5F0E6" transform="translate(137,63)"/>
<path d="M0 0 C2.76577801 1.80097173 4.00886163 2.94427587 5.6875 5.75 C6.5566513 10.90426931 6.92045502 16.39652925 4.4453125 21.12109375 C1.99165853 24.05693345 0.35888553 25.52620482 -3.3125 26.75 C-8.04289335 27.13773716 -10.36796399 27.23117872 -14.625 25.0625 C-18.22147445 21.96785919 -19.96607682 20.00699953 -20.69921875 15.23046875 C-21.01373713 10.12129242 -20.84456817 6.65179352 -17.5 2.625 C-12.65562169 -2.37487687 -6.20311592 -2.34079846 0 0 Z " fill="#E3EFE3" transform="translate(391.3125,73.25)"/>
<path d="M0 0 C3.2730552 1.35680677 5.50349857 3.50349857 8 6 C8 7.32 8 8.64 8 10 C4.625 10.1875 4.625 10.1875 1 10 C0.34 9.01 -0.32 8.02 -1 7 C-3.20725073 6.63637182 -3.20725073 6.63637182 -5.625 6.8125 C-6.44226563 6.83957031 -7.25953125 6.86664063 -8.1015625 6.89453125 C-9.04128906 6.94673828 -9.04128906 6.94673828 -10 7 C-10 8.98 -10 10.96 -10 13 C-9.20335937 13.17015625 -8.40671875 13.3403125 -7.5859375 13.515625 C-1.61013341 14.88235392 3.26079204 16.02931225 8 20 C9.53214888 23.06429776 9.22938548 25.6165642 9 29 C7.56286122 32.71965332 6.34430435 33.80030348 2.875 35.8125 C-2.6419178 37.85364295 -7.86515269 37.75114998 -13.375 35.8125 C-16.2921223 33.79829651 -17.55221921 32.21729065 -19 29 C-19 28.01 -19 27.02 -19 26 C-16.69 26 -14.38 26 -12 26 C-11.34 27.32 -10.68 28.64 -10 30 C-8.741875 30.04125 -7.48375 30.0825 -6.1875 30.125 C-5.47980469 30.14820312 -4.77210938 30.17140625 -4.04296875 30.1953125 C-1.68640281 30.13254462 -1.68640281 30.13254462 1 28 C0.80528889 26.05000871 0.80528889 26.05000871 0 24 C-2.4384593 22.24430931 -5.05646444 21.73111769 -7.9375 21.0625 C-11.39995867 20.24210401 -14.08918564 19.1169559 -17 17 C-18.85198052 13.29603896 -18.59940619 9.03296118 -18 5 C-12.81607447 -0.59318281 -7.27692861 -0.76977383 0 0 Z " fill="#E5F0E6" transform="translate(340,63)"/>
<path d="M0 0 C2.0625 1.625 2.0625 1.625 4.0625 3.625 C4.28955078 5.87158203 4.28955078 5.87158203 4.2578125 8.6328125 C4.25136719 9.61894531 4.24492187 10.60507813 4.23828125 11.62109375 C4.22152344 12.65363281 4.20476562 13.68617187 4.1875 14.75 C4.17847656 15.79027344 4.16945312 16.83054687 4.16015625 17.90234375 C4.13653747 20.47679092 4.10360149 23.05078212 4.0625 25.625 C2.0825 25.625 0.1025 25.625 -1.9375 25.625 C-1.9375 24.965 -1.9375 24.305 -1.9375 23.625 C-2.80375 24.12 -3.67 24.615 -4.5625 25.125 C-8.15850908 26.72322626 -10.06632641 27.20155777 -13.9375 26.625 C-17.67150421 24.55055322 -18.72697087 23.26828346 -20.0625 19.1875 C-19.9375 15.625 -19.9375 15.625 -17.8125 12.75 C-12.97660756 9.17564472 -8.82994842 9.5094618 -2.9375 9.625 C-3.5975 7.975 -4.2575 6.325 -4.9375 4.625 C-7.31179296 4.37430087 -7.31179296 4.37430087 -9.9375 4.625 C-10.411875 5.12 -10.88625 5.615 -11.375 6.125 C-12.9375 7.625 -12.9375 7.625 -16.125 7.8125 C-17.053125 7.750625 -17.98125 7.68875 -18.9375 7.625 C-18.4422783 3.96035945 -17.9166794 1.91667646 -14.9375 -0.375 C-9.88773398 -2.05825534 -4.86252558 -2.27607581 0 0 Z " fill="#E5EFE5" transform="translate(220.9375,73.375)"/>
<path d="M0 0 C2.81433835 1.87622557 3.43575632 2.6813816 4.625 5.75 C4.85205078 8.04003906 4.85205078 8.04003906 4.8203125 10.515625 C4.81386719 11.40507813 4.80742187 12.29453125 4.80078125 13.2109375 C4.78402344 14.13132812 4.76726562 15.05171875 4.75 16 C4.74097656 16.93585938 4.73195313 17.87171875 4.72265625 18.8359375 C4.69913636 21.14088657 4.66626853 23.4453116 4.625 25.75 C1.625 25.75 -1.375 25.75 -4.375 25.75 C-5.04273438 25.84539062 -5.71046875 25.94078125 -6.3984375 26.0390625 C-7.56246094 26.20535156 -7.56246094 26.20535156 -8.75 26.375 C-9.52085937 26.49101563 -10.29171875 26.60703125 -11.0859375 26.7265625 C-13.79825848 26.7543337 -15.12179668 26.23615538 -17.375 24.75 C-19.85538907 21.0294164 -19.83837203 19.15203429 -19.375 14.75 C-17.13333234 11.70461247 -15.89197084 10.8474003 -12.140625 10.140625 C-10.40039062 10.07101563 -10.40039062 10.07101563 -8.625 10 C-7.45453125 9.94328125 -6.2840625 9.8865625 -5.078125 9.828125 C-4.18609375 9.80234375 -3.2940625 9.7765625 -2.375 9.75 C-2.705 8.43 -3.035 7.11 -3.375 5.75 C-6.23278033 5.06506627 -6.23278033 5.06506627 -9.375 4.75 C-10.365 5.41 -11.355 6.07 -12.375 6.75 C-15.5625 6.875 -15.5625 6.875 -18.375 6.75 C-18.25 4.4375 -18.25 4.4375 -17.375 1.75 C-11.76749456 -2.21628433 -6.25296213 -2.3159119 0 0 Z " fill="#D9E8DA" transform="translate(281.375,73.25)"/>
<path d="M0 0 C2.51184213 2.05514356 3.95932852 3.65678361 4.28955078 6.95581055 C4.27907715 7.81988525 4.26860352 8.68395996 4.2578125 9.57421875 C4.25136719 10.51201172 4.24492187 11.44980469 4.23828125 12.41601562 C4.22152344 13.39248047 4.20476562 14.36894531 4.1875 15.375 C4.17847656 16.36306641 4.16945312 17.35113281 4.16015625 18.36914062 C4.1365843 20.80883765 4.10368022 23.24804697 4.0625 25.6875 C2.0825 25.6875 0.1025 25.6875 -1.9375 25.6875 C-1.9375 25.0275 -1.9375 24.3675 -1.9375 23.6875 C-2.80375 24.1825 -3.67 24.6775 -4.5625 25.1875 C-8.15850908 26.78572626 -10.06632641 27.26405777 -13.9375 26.6875 C-16.8125 25.1875 -16.8125 25.1875 -18.9375 22.6875 C-19.59706631 19.88864472 -19.55926765 17.49121155 -18.9375 14.6875 C-17.04299256 11.95098925 -15.77553443 10.95929495 -12.625 9.9375 C-9.38306467 9.63592462 -6.19140546 9.62369793 -2.9375 9.6875 C-3.5975 8.0375 -4.2575 6.3875 -4.9375 4.6875 C-7.35369823 4.43719023 -7.35369823 4.43719023 -9.9375 4.6875 C-10.9275 6.1725 -10.9275 6.1725 -11.9375 7.6875 C-15.0625 7.875 -15.0625 7.875 -17.9375 7.6875 C-17.70231427 4.15971403 -17.56886193 2.27940181 -14.9375 -0.1875 C-9.80703284 -2.11142518 -5.03039666 -2.24762404 0 0 Z " fill="#E6F1E6" transform="translate(191.9375,73.3125)"/>
<path d="M0 0 C3.75212276 2.01502889 5.63644095 3.45466142 8 7 C8 9.64 8 12.28 8 15 C1.73 15 -4.54 15 -11 15 C-9.54711014 19.5841963 -9.54711014 19.5841963 -8 21 C-3.98342857 21.22918242 -3.98342857 21.22918242 0 21 C0.66 20.34 1.32 19.68 2 19 C5.125 18.875 5.125 18.875 8 19 C7.45700313 22.80097811 5.92723228 24.57457897 3 27 C-0.53242495 28.46169308 -4.23557348 28.32451953 -8 28 C-12.33833918 25.74740081 -15.20287362 23.5926563 -17 19 C-17.70985929 13.11408341 -17.60720422 7.92984576 -14 3 C-9.58403912 -0.08090294 -5.25364775 -0.96281991 0 0 Z " fill="#EAF3EA" transform="translate(437,72)"/>
<path d="M0 0 C13.2 0 26.4 0 40 0 C37 11 37 11 36 13 C25.44 13 14.88 13 4 13 C0 2 0 2 0 0 Z " fill="#447D4B" transform="translate(70,80)"/>
<path d="M0 0 C3.5386994 1.65139305 4.81070153 2.71605229 7 6 C7.22705078 8.26831055 7.22705078 8.26831055 7.1953125 10.88671875 C7.18886719 11.82451172 7.18242187 12.76230469 7.17578125 13.72851562 C7.15902344 14.70498047 7.14226562 15.68144531 7.125 16.6875 C7.11597656 17.67556641 7.10695313 18.66363281 7.09765625 19.68164062 C7.0740843 22.12133765 7.04118022 24.56054697 7 27 C4.69 27 2.38 27 0 27 C-0.02505615 26.42967041 -0.0501123 25.85934082 -0.07592773 25.27172852 C-0.19156549 22.70173843 -0.31443624 20.13214473 -0.4375 17.5625 C-0.47681641 16.66466797 -0.51613281 15.76683594 -0.55664062 14.84179688 C-0.59853516 13.98779297 -0.64042969 13.13378906 -0.68359375 12.25390625 C-0.72025146 11.46314697 -0.75690918 10.6723877 -0.79467773 9.85766602 C-0.80563257 7.98598559 -0.80563257 7.98598559 -2 7 C-4.95817107 6.74994614 -4.95817107 6.74994614 -8 7 C-10.35358251 9.35358251 -10.27871904 9.92968394 -10.4140625 13.1328125 C-10.45273437 13.93847656 -10.49140625 14.74414062 -10.53125 15.57421875 C-10.5621875 16.41597656 -10.593125 17.25773437 -10.625 18.125 C-10.66367187 18.97449219 -10.70234375 19.82398437 -10.7421875 20.69921875 C-10.83656494 22.79911684 -10.91937586 24.89952891 -11 27 C-12.98 27 -14.96 27 -17 27 C-17 18.42 -17 9.84 -17 1 C-15.02 1 -13.04 1 -11 1 C-11 1.66 -11 2.32 -11 3 C-10.34 3 -9.68 3 -9 3 C-9 2.34 -9 1.68 -9 1 C-5.93570224 -0.53214888 -3.3834358 -0.22938548 0 0 Z " fill="#EAF3EA" transform="translate(309,72)"/>
<path d="M0 0 C2.31 0 4.62 0 7 0 C7 2.31 7 4.62 7 7 C8.65 7 10.3 7 12 7 C12 8.65 12 10.3 12 12 C10.35 12 8.7 12 7 12 C7.33 16.95 7.66 21.9 8 27 C9.32 27.33 10.64 27.66 12 28 C12 29.65 12 31.3 12 33 C10.56510191 33.13536774 9.12652893 33.23217143 7.6875 33.3125 C6.88699219 33.37050781 6.08648437 33.42851563 5.26171875 33.48828125 C3 33 3 33 1.21875 31 C-0.3337773 27.17839435 -0.32860589 23.73615364 -0.1875 19.6875 C-0.16719727 18.57665039 -0.16719727 18.57665039 -0.14648438 17.44335938 C-0.11135979 15.62858925 -0.05755972 13.81419712 0 12 C-1.32 12 -2.64 12 -4 12 C-4 10.35 -4 8.7 -4 7 C-2.68 7 -1.36 7 0 7 C0 4.69 0 2.38 0 0 Z " fill="#E3EFE4" transform="translate(355,66)"/>
<path d="M0 0 C0 1.98 0 3.96 0 6 C-0.94875 6.268125 -1.8975 6.53625 -2.875 6.8125 C-6.25267273 7.74986588 -6.25267273 7.74986588 -8 11 C-8.30066154 13.75417318 -8.50925299 16.42645147 -8.625 19.1875 C-8.66367187 19.93708984 -8.70234375 20.68667969 -8.7421875 21.45898438 C-8.83628216 23.30559199 -8.91922319 25.1527619 -9 27 C-11.31 27 -13.62 27 -16 27 C-16 18.42 -16 9.84 -16 1 C-13 1 -10 1 -7 1 C-4 0 -4 0 0 0 Z " fill="#E1ECE1" transform="translate(418,72)"/>
<path d="M0 0 C1.98 0.99 3.96 1.98 6 3 C6 10.59 6 18.18 6 26 C4.68 26 3.36 26 2 26 C2 25.34 2 24.68 2 24 C0.68 24 -0.64 24 -2 24 C-2 24.66 -2 25.32 -2 26 C-3.65 26 -5.3 26 -7 26 C-7 25.01 -7 24.02 -7 23 C-4.69 22.01 -2.38 21.02 0 20 C0 15.71 0 11.42 0 7 C-5.74922159 5.33885691 -5.74922159 5.33885691 -9 8 C-12.1875 8.125 -12.1875 8.125 -15 8 C-14.875 5.6875 -14.875 5.6875 -14 3 C-9.66919032 -0.06325563 -5.17527402 -0.97036388 0 0 Z " fill="#EAF3EA" transform="translate(278,72)"/>
<path d="M0 0 C2.06183633 -0.08150744 4.12461349 -0.1394194 6.1875 -0.1875 C7.33605469 -0.22230469 8.48460938 -0.25710937 9.66796875 -0.29296875 C13.33289234 0.02926955 15.09664715 0.78767607 18 3 C18.99 4.485 18.99 4.485 20 6 C18.35 6 16.7 6 15 6 C14.67 6.99 14.34 7.98 14 9 C12.68 8.34 11.36 7.68 10 7 C10.84884766 7.58007812 10.84884766 7.58007812 11.71484375 8.171875 C12.44832031 8.69265625 13.18179688 9.2134375 13.9375 9.75 C14.66839844 10.26046875 15.39929688 10.7709375 16.15234375 11.296875 C18.20805399 13.19177915 18.62669176 14.27425729 19 17 C13.87409757 17.45586089 10.17639369 17.67533712 5.625 15.0625 C2.32023491 11.77656548 0.21423765 7.47174418 -1 3 C-0.67 2.01 -0.34 1.02 0 0 Z " fill="#E4F0E5" transform="translate(71,57)"/>
<path d="M0 0 C1.98 0 3.96 0 6 0 C6 11.55 6 23.1 6 35 C4.02 35 2.04 35 0 35 C0 34.01 0 33.02 0 32 C-0.66 32 -1.32 32 -2 32 C-1.835 31.113125 -1.67 30.22625 -1.5 29.3125 C-0.9889698 25.79206974 -0.96581715 22.36751594 -1 18.8125 C-1.05866996 12.49081144 -0.63432176 6.2865817 0 0 Z " fill="#EBF3EB" transform="translate(250,64)"/>
<path d="M0 0 C2.9375 0.9375 2.9375 0.9375 4.8125 2.5 C6.43651256 6.01869387 6.63173653 9.13089971 5.9375 12.9375 C4.3125 15.4375 4.3125 15.4375 1.9375 16.9375 C-1.18876985 17.38410998 -3.09581313 17.62831633 -5.71875 15.75390625 C-7.56111289 13.26350293 -7.49587058 11.50979049 -7.5 8.4375 C-7.51933594 7.4784375 -7.53867187 6.519375 -7.55859375 5.53125 C-7.0625 2.9375 -7.0625 2.9375 -5.2265625 1.08984375 C-3.0625 -0.0625 -3.0625 -0.0625 0 0 Z " fill="#498150" transform="translate(385.0625,77.0625)"/>
<path d="M0 0 C2.89659753 0.32184417 5.31897331 0.61408488 7.875 2.0625 C9.70257451 5.20998943 9.41679445 8.49610092 9 12 C7.99124788 14.81009519 7.66604583 15.66697708 5 17 C-0.38594595 17.45837838 -0.38594595 17.45837838 -2.6640625 15.7578125 C-4.76665653 12.9912414 -4.46449682 10.59847367 -4.37109375 7.23046875 C-3.83627033 4.01589854 -2.30032507 2.22843991 0 0 Z " fill="#49814F" transform="translate(241,77)"/>
<path d="M0 0 C3.04197495 2.23716898 4.75424156 3.58158115 5.41259766 7.38134766 C5.49174817 10.20574454 5.43572283 12.98974934 5.3125 15.8125 C5.28994141 16.79154297 5.26738281 17.77058594 5.24414062 18.77929688 C5.18539727 21.18777455 5.10332129 23.59309078 5 26 C2.69 26 0.38 26 -2 26 C-2.02505615 25.42967041 -2.0501123 24.85934082 -2.07592773 24.27172852 C-2.19156549 21.70173843 -2.31443624 19.13214473 -2.4375 16.5625 C-2.47681641 15.66466797 -2.51613281 14.76683594 -2.55664062 13.84179688 C-2.59853516 12.98779297 -2.64042969 12.13378906 -2.68359375 11.25390625 C-2.72025146 10.46314697 -2.75690918 9.6723877 -2.79467773 8.85766602 C-2.80563257 6.98598559 -2.80563257 6.98598559 -4 6 C-8.14276875 5.75266863 -8.14276875 5.75266863 -12 7 C-12 6.01 -12 5.02 -12 4 C-8.7 4 -5.4 4 -2 4 C-1.34 2.68 -0.68 1.36 0 0 Z " fill="#D7E8D8" transform="translate(311,73)"/>
<path d="M0 0 C3 1.5 3 1.5 5 3 C3.02 3.99 3.02 3.99 1 5 C1.33 6.98 1.66 8.96 2 11 C-2.29 11 -6.58 11 -11 11 C-11 10.01 -11 9.02 -11 8 C-12.65 8 -14.3 8 -16 8 C-15.07349738 4.57194031 -14.33885367 3.23397039 -11.375 1.1875 C-7.11772297 -0.31043081 -4.50580165 -0.42912397 0 0 Z " fill="#E3EFE4" transform="translate(437,72)"/>
<path d="M0 0 C-0.33 1.98 -0.66 3.96 -1 6 C-12.88 6 -24.76 6 -37 6 C-36.67 4.68 -36.34 3.36 -36 2 C-34.56164795 1.96241577 -34.56164795 1.96241577 -33.09423828 1.92407227 C-29.54201523 1.8300138 -25.98998844 1.72978942 -22.43798828 1.62768555 C-20.89962347 1.58433074 -19.36121037 1.54265605 -17.82275391 1.50268555 C-15.6134586 1.44499602 -13.40440652 1.38129821 -11.1953125 1.31640625 C-10.50567413 1.29969376 -9.81603577 1.28298126 -9.10549927 1.26576233 C-5.87066341 1.16503133 -3.06033655 0 0 0 Z " fill="#EEF6EE" transform="translate(110,92)"/>
<path d="M0 0 C0 0.66 0 1.32 0 2 C-0.66 2 -1.32 2 -2 2 C-2 2.66 -2 3.32 -2 4 C-1.34 4.33 -0.68 4.66 0 5 C-0.66 5 -1.32 5 -2 5 C-1.80528889 6.94999129 -1.80528889 6.94999129 -1 9 C0.9837767 10.28436734 0.9837767 10.28436734 3 11 C3 11.66 3 12.32 3 13 C3.99 13.33 4.98 13.66 6 14 C2.48746854 16.34168764 1.13530644 16.49623677 -3 16 C-5.875 14.5 -5.875 14.5 -8 12 C-8.65946879 9.20155851 -8.62601174 6.80269478 -8 4 C-5.38749338 0.26784768 -4.66777264 0 0 0 Z " fill="#E5F0E5" transform="translate(181,84)"/>
<path d="M0 0 C2 2 2 2 5 13 C15.56 13 26.12 13 37 13 C37 13.33 37 13.66 37 14 C26.44 14 15.88 14 5 14 C4.67 15.32 4.34 16.64 4 18 C3.01 17.67 2.02 17.34 1 17 C-0.04004769 14.4657993 -0.89978397 12.04814798 -1.6875 9.4375 C-1.91244141 8.72658203 -2.13738281 8.01566406 -2.36914062 7.28320312 C-2.92358017 5.52551181 -3.46320189 3.76315902 -4 2 C-2.68 1.34 -1.36 0.68 0 0 Z " fill="#D8E8D9" transform="translate(69,80)"/>
<path d="M0 0 C0.33 1.65 0.66 3.3 1 5 C0.09636719 5.10957031 -0.80726563 5.21914062 -1.73828125 5.33203125 C-2.91777344 5.49058594 -4.09726562 5.64914063 -5.3125 5.8125 C-6.48425781 5.96332031 -7.65601563 6.11414063 -8.86328125 6.26953125 C-12.01197517 7.00278874 -13.23004471 7.34191768 -15 10 C-15.38027273 14.65391157 -15.38027273 14.65391157 -14 19 C-14.99 18.67 -15.98 18.34 -17 18 C-17.22777562 12.41949743 -17.41900294 7.15352801 -15 2 C-11.5 0.625 -11.5 0.625 -8 0 C-5.13822943 -1.43088528 -3.06624227 -0.59991697 0 0 Z " fill="#4D8055" transform="translate(278,78)"/>
<path d="M0 0 C3.26700671 1.37524196 5.50120199 3.50120199 8 6 C8 7.32 8 8.64 8 10 C4.625 10.1875 4.625 10.1875 1 10 C0.34 9.01 -0.32 8.02 -1 7 C-4.56769552 6.26393501 -4.56769552 6.26393501 -8 6 C-8 5.67 -8 5.34 -8 5 C-6.02 4.67 -4.04 4.34 -2 4 C-2.33 3.01 -2.66 2.02 -3 1 C-8.62541841 1.45003347 -11.61487125 2.68441485 -16 6 C-16 5.01 -16 4.02 -16 3 C-11.57247516 -1.1221783 -5.67033905 -0.77322805 0 0 Z " fill="#E2EEE2" transform="translate(340,63)"/>
<path d="M0 0 C6.27 0 12.54 0 19 0 C18.67 0.66 18.34 1.32 18 2 C17.38125 2.12375 16.7625 2.2475 16.125 2.375 C13.80571962 2.79770648 13.80571962 2.79770648 12.75 5.0625 C11 7 11 7 9.140625 7.3671875 C5.95548869 7.47180877 3.73770112 7.4610632 1 5.75 C0 4 0 4 0 0 Z " fill="#629266" transform="translate(426,87)"/>
<path d="M0 0 C0 3 0 3 -1.9375 5.625 C-4.19540159 9.31974806 -4.49323775 11.54140915 -4.78515625 15.7421875 C-5.09473099 18.99553659 -6.00839901 21.89298357 -7 25 C-8.66666667 23.33333333 -10.33333333 21.66666667 -12 20 C-12.598125 19.46375 -13.19625 18.9275 -13.8125 18.375 C-15 17 -15 17 -15 14 C-13.906875 13.979375 -12.81375 13.95875 -11.6875 13.9375 C-10.470625 13.628125 -9.25375 13.31875 -8 13 C-6.41046663 10.08352833 -6.41046663 10.08352833 -5.75390625 7.921875 C-4.49782579 4.71984607 -2.28781629 2.53514778 0 0 Z " fill="#E0EDE2" transform="translate(101,49)"/>
<path d="M0 0 C1.8871875 0.0309375 1.8871875 0.0309375 3.8125 0.0625 C3.8125 1.3825 3.8125 2.7025 3.8125 4.0625 C2.884375 4.330625 1.95625 4.59875 1 4.875 C-2.14835894 5.77460005 -2.14835894 5.77460005 -3.6875 7.6875 C-5.1875 9.0625 -5.1875 9.0625 -8.375 9.25 C-9.303125 9.188125 -10.23125 9.12625 -11.1875 9.0625 C-10.6922783 5.39785945 -10.1666794 3.35417646 -7.1875 1.0625 C-4.43671116 0.14557039 -2.82801087 -0.04636083 0 0 Z " fill="#E1EDE2" transform="translate(213.1875,71.9375)"/>
<path d="M0 0 C0.33 0 0.66 0 1 0 C1 6.27 1 12.54 1 19 C-0.65 19 -2.3 19 -4 19 C-4 14.71 -4 10.42 -4 6 C-3.34 6 -2.68 6 -2 6 C-1.34 4.02 -0.68 2.04 0 0 Z " fill="#EDF5ED" transform="translate(314,80)"/>
<path d="M0 0 C2.5 0.1875 2.5 0.1875 5 1 C7 4 7 4 6.75 6.0625 C6 8 6 8 4 10 C-0.55555556 9.44444444 -0.55555556 9.44444444 -2 8 C-2.1875 5.0625 -2.1875 5.0625 -2 2 C-1.34 1.34 -0.68 0.68 0 0 Z " fill="#E0EDE0" transform="translate(102,101)"/>
<path d="M0 0 C1.9375 0.8125 1.9375 0.8125 3.9375 2.8125 C3.60778521 6.10964793 3.3148161 7.4351839 0.9375 9.8125 C-3.61805556 9.25694444 -3.61805556 9.25694444 -5.0625 7.8125 C-5.36482139 4.94044676 -5.43642386 3.37338579 -3.8125 0.9375 C-2.0625 -0.1875 -2.0625 -0.1875 0 0 Z " fill="#E1EEE1" transform="translate(77.0625,101.1875)"/>
<path d="M0 0 C-0.33 0.99 -0.66 1.98 -1 3 C-1.99 3.33 -2.98 3.66 -4 4 C-4.12117188 4.66386719 -4.24234375 5.32773438 -4.3671875 6.01171875 C-5.22547708 10.53424459 -6.03971311 14.79938524 -8 19 C-8.66 19 -9.32 19 -10 19 C-11.03220924 7.35897357 -11.03220924 7.35897357 -7.25 2.75 C-4.58117101 -0.08057621 -4.20794586 0 0 0 Z " fill="#EEF4EF" transform="translate(382,74)"/>
<path d="M0 0 C0.25 2.3125 0.25 2.3125 0 5 C-1.625 6.875 -1.625 6.875 -4 8 C-7.25 7.6875 -7.25 7.6875 -10 7 C-10 5.35 -10 3.7 -10 2 C-6.5980513 -0.09350689 -3.94727588 -0.17942163 0 0 Z " fill="#4D8253" transform="translate(279,87)"/>
<path d="M0 0 C1.4540625 0.0309375 1.4540625 0.0309375 2.9375 0.0625 C2.39450313 3.86347811 0.86473228 5.63707897 -2.0625 8.0625 C-5.58011502 9.51806483 -9.30705727 9.13472005 -13.0625 9.0625 C-13.0625 8.7325 -13.0625 8.4025 -13.0625 8.0625 C-11.0825 7.7325 -9.1025 7.4025 -7.0625 7.0625 C-6.7325 6.0725 -6.4025 5.0825 -6.0625 4.0625 C-7.7125 4.0625 -9.3625 4.0625 -11.0625 4.0625 C-11.0625 3.7325 -11.0625 3.4025 -11.0625 3.0625 C-9.928125 2.753125 -8.79375 2.44375 -7.625 2.125 C-0.5367268 0.01095361 -0.5367268 0.01095361 0 0 Z " fill="#CCDFCC" transform="translate(442.0625,90.9375)"/>
<path d="M0 0 C0.125 2.375 0.125 2.375 0 5 C-2 7 -2 7 -5.625 7.125 C-6.73875 7.08375 -7.8525 7.0425 -9 7 C-9.33 5.35 -9.66 3.7 -10 2 C-6.3558226 -0.4294516 -4.28758728 -0.16179575 0 0 Z " fill="#4B8051" transform="translate(218,87)"/>
<path d="M0 0 C0.25 2.3125 0.25 2.3125 0 5 C-1.6875 6.875 -1.6875 6.875 -4 8 C-6.75 7.6875 -6.75 7.6875 -9 7 C-9.33 5.35 -9.66 3.7 -10 2 C-6.49223216 0.39644899 -3.85645121 -0.22036864 0 0 Z " fill="#4B8150" transform="translate(189,87)"/>
<path d="M0 0 C6.46153846 0.46153846 6.46153846 0.46153846 9 3 C9 3.99 9 4.98 9 6 C5.04 6 1.08 6 -3 6 C-2 2 -2 2 0 0 Z " fill="#568259" transform="translate(430,77)"/>
<path d="M0 0 C2.5625 0.1875 2.5625 0.1875 4.5625 2.1875 C4.5625 3.5075 4.5625 4.8275 4.5625 6.1875 C2.93925914 6.40912329 1.313779 6.61439803 -0.3125 6.8125 C-1.66988281 6.98652344 -1.66988281 6.98652344 -3.0546875 7.1640625 C-3.84101563 7.17179687 -4.62734375 7.17953125 -5.4375 7.1875 C-6.0975 6.5275 -6.7575 5.8675 -7.4375 5.1875 C-6.7775 5.1875 -6.1175 5.1875 -5.4375 5.1875 C-4.9734375 4.2284375 -4.9734375 4.2284375 -4.5 3.25 C-2.94235437 0.22633495 -2.94235437 0.22633495 0 0 Z " fill="#4C8051" transform="translate(213.4375,76.8125)"/>
<path d="M0 0 C2.3125 0.4375 2.3125 0.4375 4.3125 2.4375 C4.3125 3.7575 4.3125 5.0775 4.3125 6.4375 C2.68925914 6.65912329 1.063779 6.86439803 -0.5625 7.0625 C-1.91988281 7.23652344 -1.91988281 7.23652344 -3.3046875 7.4140625 C-4.09101563 7.42179687 -4.87734375 7.42953125 -5.6875 7.4375 C-6.3475 6.7775 -7.0075 6.1175 -7.6875 5.4375 C-3.41631356 0.55614407 -3.41631356 0.55614407 0 0 Z " fill="#4C8050" transform="translate(184.6875,76.5625)"/>
<path d="M0 0 C1.4540625 0.0309375 1.4540625 0.0309375 2.9375 0.0625 C2.2775 2.3725 1.6175 4.6825 0.9375 7.0625 C-1.0425 7.0625 -3.0225 7.0625 -5.0625 7.0625 C-4.02286585 0.0820993 -4.02286585 0.0820993 0 0 Z " fill="#DFEADF" transform="translate(179.0625,73.9375)"/>
<path d="M0 0 C2.97 0.495 2.97 0.495 6 1 C6.33 2.65 6.66 4.3 7 6 C4.36 6 1.72 6 -1 6 C-1.33 5.34 -1.66 4.68 -2 4 C-1.0625 1.875 -1.0625 1.875 0 0 Z " fill="#4D8052" transform="translate(272,77)"/>
<path d="M0 0 C6.33169265 1.29880875 10.68015353 5.40732112 15 10 C15.33 10.99 15.66 11.98 16 13 C12.04 13 8.08 13 4 13 C4 12.67 4 12.34 4 12 C6.64 12 9.28 12 12 12 C9.81147061 7.03933337 6.31277561 4.98781011 1.86328125 2.234375 C1.24839844 1.82703125 0.63351563 1.4196875 0 1 C0 0.67 0 0.34 0 0 Z " fill="#5C8361" transform="translate(78,62)"/>
<path d="M0 0 C2.31 0 4.62 0 7 0 C7 0.99 7 1.98 7 3 C7.33 3.99 7.66 4.98 8 6 C5.125 6.125 5.125 6.125 2 6 C1.34 5.34 0.68 4.68 0 4 C0 2.68 0 1.36 0 0 Z " fill="#447D4A" transform="translate(427,88)"/>
<path d="M0 0 C4 5 4 5 5 7 C4.01 7.33 3.02 7.66 2 8 C1.67 13.28 1.34 18.56 1 24 C0.67 24 0.34 24 0 24 C0 16.08 0 8.16 0 0 Z " fill="#507B53" transform="translate(144,75)"/>
<path d="M0 0 C0.66 0.33 1.32 0.66 2 1 C0.68 2.32 -0.64 3.64 -2 5 C-1.34 5.66 -0.68 6.32 0 7 C-0.99 8.32 -1.98 9.64 -3 11 C-3 10.01 -3 9.02 -3 8 C-4.65 8 -6.3 8 -8 8 C-7.00310315 4.31148165 -6.31080309 3.19425193 -3 1.125 C-2.01 0.75375 -1.02 0.3825 0 0 Z " fill="#DAE9DA" transform="translate(429,72)"/>
<path d="M0 0 C0 3.4448383 -0.98551066 4.40000609 -2.91015625 7.10546875 C-5.02081465 10.77453442 -5.93762732 14.92757138 -7 19 C-7.99 17.68 -8.98 16.36 -10 15 C-9.67 14.34 -9.34 13.68 -9 13 C-8.71253906 12.38511719 -8.42507812 11.77023438 -8.12890625 11.13671875 C-6.91535008 8.83978025 -5.51326651 6.87609594 -3.9375 4.8125 C-3.41027344 4.11769531 -2.88304688 3.42289063 -2.33984375 2.70703125 C-1 1 -1 1 0 0 Z " fill="#5C8360" transform="translate(101,49)"/>
<path d="M0 0 C1 2 1 2 0.44140625 4.1640625 C0.15136719 4.97617188 -0.13867188 5.78828125 -0.4375 6.625 C-0.72496094 7.44226563 -1.01242188 8.25953125 -1.30859375 9.1015625 C-1.65083984 10.04128906 -1.65083984 10.04128906 -2 11 C-2.33 10.01 -2.66 9.02 -3 8 C-2.67 7.34 -2.34 6.68 -2 6 C-3.32 6.33 -4.64 6.66 -6 7 C-5.67 5.02 -5.34 3.04 -5 1 C-4.01 1 -3.02 1 -2 1 C-1.34 0.67 -0.68 0.34 0 0 Z " fill="#D8E6D8" transform="translate(112,86)"/>
<path d="M0 0 C3.08089673 2.77280706 4.68775452 5.06326356 6 9 C4.68 10.65 3.36 12.3 2 14 C1.34 12.68 0.68 11.36 0 10 C0.66 9.34 1.32 8.68 2 8 C1.72382467 6.05925139 1.72382467 6.05925139 1 4 C0.66666667 2.66666667 0.33333333 1.33333333 0 0 Z " fill="#DDECDE" transform="translate(149,72)"/>
<path d="M0 0 C0.33 0 0.66 0 1 0 C1.12375 0.804375 1.2475 1.60875 1.375 2.4375 C1.58125 3.283125 1.7875 4.12875 2 5 C2.66 5.33 3.32 5.66 4 6 C4 7.98 4 9.96 4 12 C3.01 12 2.02 12 1 12 C-0.26237731 9.47524538 -0.09856404 7.68799534 -0.0625 4.875 C-0.05347656 3.96492188 -0.04445313 3.05484375 -0.03515625 2.1171875 C-0.02355469 1.41851562 -0.01195313 0.71984375 0 0 Z " fill="#D5E5D7" transform="translate(90,50)"/>
<path d="M0 0 C-0.25 1.875 -0.25 1.875 -1 4 C-2.8125 5.3125 -2.8125 5.3125 -5 6 C-7.25 5.625 -7.25 5.625 -9 5 C-4.5 0 -4.5 0 0 0 Z " fill="#EEF6EE" transform="translate(435,72)"/>
<path d="M0 0 C0.66 0.33 1.32 0.66 2 1 C1.36771484 1.58394531 1.36771484 1.58394531 0.72265625 2.1796875 C-4.11674498 7.12157017 -4.97254366 11.1770992 -5 18 C-5.33 18 -5.66 18 -6 18 C-6.92017937 8.57668161 -6.92017937 8.57668161 -4.6640625 4.7109375 C-3.18463384 3.02313861 -1.69077361 1.47439485 0 0 Z " fill="#D7E9DA" transform="translate(377,73)"/>
<path d="M0 0 C0 0.33 0 0.66 0 1 C-0.65226562 1.02578125 -1.30453125 1.0515625 -1.9765625 1.078125 C-7.88074693 1.46128741 -11.39666863 2.24465072 -16 6 C-16 5.01 -16 4.02 -16 3 C-11.48267456 -1.20578575 -5.75838972 -0.27228813 0 0 Z " fill="#D2E6D2" transform="translate(340,63)"/>
<path d="M0 0 C2.64 0 5.28 0 8 0 C7.67 1.98 7.34 3.96 7 6 C6.01 5.34 5.02 4.68 4 4 C3.34 4 2.68 4 2 4 C1.34 2.68 0.68 1.36 0 0 Z " fill="#EEF7EE" transform="translate(74,57)"/>
<path d="M0 0 C0.99 0 1.98 0 3 0 C2.42655063 2.86724686 2.1385485 3.8614515 0 6 C-0.99 6 -1.98 6 -3 6 C-2.42655063 3.13275314 -2.1385485 2.1385485 0 0 Z " fill="#E7F1E7" transform="translate(441,92)"/>
<path d="M0 0 C0.86625 0.3403125 0.86625 0.3403125 1.75 0.6875 C0.96625 1.14125 0.1825 1.595 -0.625 2.0625 C-4.07851116 4.20038786 -5.56172235 6.06976217 -7.25 9.6875 C-6.76454933 3.25527857 -6.76454933 3.25527857 -4.4375 0.6875 C-2.25 -0.3125 -2.25 -0.3125 0 0 Z " fill="#CCE1CD" transform="translate(208.25,84.3125)"/>
<path d="M0 0 C0.763125 0.0825 1.52625 0.165 2.3125 0.25 C1.125 2.25 1.125 2.25 -0.6875 4.25 C-3.375 4.5 -3.375 4.5 -5.6875 4.25 C-3.34903846 0.31153846 -3.34903846 0.31153846 0 0 Z " fill="#3F7D46" transform="translate(433.6875,77.75)"/>
<path d="M0 0 C0 1.98 0 3.96 0 6 C-0.33 4.68 -0.66 3.36 -1 2 C-3.31 2.66 -5.62 3.32 -8 4 C-7.67 3.01 -7.34 2.02 -7 1 C-4 0 -4 0 0 0 Z " fill="#CCE2CF" transform="translate(418,72)"/>
<path d="M0 0 C0.66 0.99 1.32 1.98 2 3 C1.125 6.6875 1.125 6.6875 0 10 C-1.5 8.6875 -1.5 8.6875 -3 7 C-3 6.01 -3 5.02 -3 4 C-2.01 4 -1.02 4 0 4 C0 2.68 0 1.36 0 0 Z " fill="#B5CFB9" transform="translate(94,64)"/>
<path d="M0 0 C0.12375 0.61875 0.2475 1.2375 0.375 1.875 C0.87197356 4.19120832 0.87197356 4.19120832 3 6 C1.68 6 0.36 6 -1 6 C-1 5.01 -1 4.02 -1 3 C-2.98 3 -4.96 3 -7 3 C-7 2.67 -7 2.34 -7 2 C-4.69 1.34 -2.38 0.68 0 0 Z " fill="#779F7C" transform="translate(270,78)"/>
<path d="M0 0 C1.67542976 0.28604898 3.34385343 0.61781233 5 1 C2.33333333 2.33333333 -0.33333333 3.66666667 -3 5 C-1.125 1.125 -1.125 1.125 0 0 Z " fill="#548258" transform="translate(241,77)"/>
<path d="M0 0 C2.625 0.1875 2.625 0.1875 5 1 C5.33 1.66 5.66 2.32 6 3 C3.03 3 0.06 3 -3 3 C-2.01 2.01 -1.02 1.02 0 0 Z " fill="#F0F6F2" transform="translate(210,84)"/>
<path d="M0 0 C3.875 4.75 3.875 4.75 5 7 C3.68 7.33 2.36 7.66 1 8 C0.67 5.36 0.34 2.72 0 0 Z " fill="#568659" transform="translate(144,75)"/>
</svg>
